<svg xmlns="http://www.w3.org/2000/svg" xmlns:xlink="http://www.w3.org/1999/xlink" width="220" zoomAndPan="magnify" viewBox="0 0 165 165.000002" height="220" preserveAspectRatio="xMidYMid meet" version="1.0"><path fill="#004aad" d="M 115.730469 139.152344 C 115.195312 139.429688 114.652344 139.699219 114.101562 139.957031 C 87.917969 152.164062 53.742188 134.296875 37.769531 100.050781 C 21.800781 65.800781 30.082031 28.136719 56.265625 15.925781 C 56.816406 15.671875 57.371094 15.425781 57.925781 15.195312 C 33.03125 28.1875 25.425781 64.988281 41.058594 98.515625 C 56.695312 132.042969 89.773438 149.871094 115.730469 139.152344 Z M 115.730469 139.152344 " fill-opacity="1" fill-rule="nonzero"/><path fill="#1447e6" d="M 140.03125 98.359375 C 138.089844 114.503906 130.21875 127.839844 117.296875 133.867188 C 93.871094 144.789062 62.726562 127.570312 47.730469 95.40625 C 32.730469 63.246094 39.5625 28.316406 62.984375 17.394531 C 75.90625 11.367188 91.183594 13.910156 104.796875 22.800781 C 93.71875 16.945312 81.804688 15.730469 71.542969 20.515625 C 66.660156 22.792969 62.574219 26.234375 59.347656 30.542969 C 58.210938 32.054688 57.1875 33.679688 56.265625 35.398438 C 48.550781 49.808594 48.558594 70.835938 57.820312 90.699219 C 67.082031 110.558594 83.1875 124.085938 99.1875 127.441406 C 101.097656 127.835938 103 128.097656 104.886719 128.199219 C 110.257812 128.496094 115.523438 127.582031 120.410156 125.304688 C 130.667969 120.519531 137.394531 110.609375 140.03125 98.359375 Z M 140.03125 98.359375 " fill-opacity="1" fill-rule="nonzero"/><path fill="#180573" d="M 129.988281 57.046875 C 142.742188 84.394531 135.992188 114.53125 114.917969 124.359375 C 114.355469 124.621094 113.792969 124.859375 113.21875 125.085938 C 132.984375 114.492188 139.039062 85.230469 126.628906 58.613281 C 114.214844 31.996094 87.910156 17.828125 67.089844 26.160156 C 67.628906 25.863281 68.175781 25.585938 68.738281 25.324219 C 89.8125 15.5 117.234375 29.699219 129.988281 57.046875 Z M 129.988281 57.046875 " fill-opacity="1" fill-rule="nonzero"/></svg>