<svg xmlns="http://www.w3.org/2000/svg" xmlns:xlink="http://www.w3.org/1999/xlink" width="625" zoomAndPan="magnify" viewBox="0 0 468.75 141.750002" height="189" preserveAspectRatio="xMidYMid meet" version="1.0"><defs><g/><clipPath id="9a402b5b1d"><path d="M 0.289062 0 L 468.210938 0 L 468.210938 141.5 L 0.289062 141.5 Z M 0.289062 0 " clip-rule="nonzero"/></clipPath><clipPath id="89adcc856c"><path d="M 112.441406 24.546875 L 191.054688 24.546875 L 191.054688 103.160156 L 112.441406 103.160156 Z M 112.441406 24.546875 " clip-rule="nonzero"/></clipPath><clipPath id="e9f3e5cdad"><rect x="0" width="288" y="0" height="69"/></clipPath><clipPath id="b1996e925d"><rect x="0" width="213" y="0" height="30"/></clipPath></defs><g clip-path="url(#9a402b5b1d)"><path fill="#ffffff" d="M 0.289062 0 L 468.210938 0 L 468.210938 141.5 L 0.289062 141.5 Z M 0.289062 0 " fill-opacity="1" fill-rule="nonzero"/></g><path fill="#004aad" d="M 146.035156 128.3125 C 145.5 128.59375 144.953125 128.863281 144.398438 129.121094 C 118.105469 141.382812 83.78125 123.4375 67.742188 89.042969 C 51.703125 54.648438 60.019531 16.820312 86.316406 4.558594 C 86.867188 4.300781 87.425781 4.054688 87.984375 3.824219 C 62.980469 16.875 55.34375 53.832031 71.042969 87.503906 C 86.746094 121.175781 119.964844 139.078125 146.035156 128.3125 Z M 146.035156 128.3125 " fill-opacity="1" fill-rule="nonzero"/><path fill="#1447e6" d="M 170.4375 87.347656 C 168.492188 103.558594 160.585938 116.953125 147.609375 123.003906 C 124.082031 133.972656 92.804688 116.679688 77.742188 84.378906 C 62.679688 52.078125 69.539062 17.003906 93.0625 6.03125 C 106.042969 -0.0195312 121.382812 2.535156 135.054688 11.464844 C 123.929688 5.582031 111.964844 4.359375 101.660156 9.167969 C 96.753906 11.453125 92.652344 14.914062 89.410156 19.238281 C 88.269531 20.753906 87.242188 22.386719 86.316406 24.113281 C 78.570312 38.585938 78.574219 59.703125 87.878906 79.652344 C 97.179688 99.597656 113.351562 113.183594 129.421875 116.550781 C 131.339844 116.949219 133.25 117.210938 135.144531 117.3125 C 140.539062 117.613281 145.828125 116.691406 150.734375 114.40625 C 161.039062 109.597656 167.792969 99.648438 170.4375 87.347656 Z M 170.4375 87.347656 " fill-opacity="1" fill-rule="nonzero"/><path fill="#180573" d="M 160.355469 45.855469 C 173.164062 73.320312 166.382812 103.585938 145.21875 113.457031 C 144.65625 113.71875 144.089844 113.960938 143.511719 114.183594 C 163.363281 103.546875 169.445312 74.160156 156.980469 47.429688 C 144.515625 20.699219 118.09375 6.46875 97.1875 14.835938 C 97.726562 14.539062 98.277344 14.261719 98.84375 13.996094 C 120.003906 4.128906 147.546875 18.390625 160.355469 45.855469 Z M 160.355469 45.855469 " fill-opacity="1" fill-rule="nonzero"/><g clip-path="url(#89adcc856c)"><path fill="#ffffff" d="M 191.253906 95.476562 C 191.253906 99.832031 187.726562 103.359375 183.371094 103.359375 L 120.324219 103.359375 C 115.96875 103.359375 112.441406 99.832031 112.441406 95.476562 L 112.441406 32.429688 C 112.441406 28.078125 115.96875 24.546875 120.324219 24.546875 L 183.371094 24.546875 C 187.726562 24.546875 191.253906 28.078125 191.253906 32.429688 Z M 191.253906 95.476562 " fill-opacity="1" fill-rule="nonzero"/></g><g transform="matrix(1, 0, 0, 1, 119, 16)"><g clip-path="url(#e9f3e5cdad)"><g fill="#1447e6" fill-opacity="1"><g transform="translate(1.316674, 52.456064)"><g><path d="M 12.609375 0 L 12.609375 -29.015625 L 0.828125 -29.015625 L 0.828125 -36.640625 L 33.015625 -36.640625 L 33.015625 -29.015625 L 21.21875 -29.015625 L 21.21875 0 Z M 12.609375 0 "/></g></g></g><g fill="#1447e6" fill-opacity="1"><g transform="translate(46.555428, 52.456064)"><g><path d="M 2.40625 0 L 2.40625 -36.640625 L 16.515625 -36.640625 C 19.691406 -36.640625 22.53125 -36.328125 25.03125 -35.703125 C 27.539062 -35.078125 29.515625 -33.941406 30.953125 -32.296875 C 32.398438 -30.648438 33.125 -28.3125 33.125 -25.28125 C 33.125 -23.894531 32.867188 -22.515625 32.359375 -21.140625 C 31.847656 -19.765625 30.960938 -18.507812 29.703125 -17.375 C 28.441406 -16.25 26.640625 -15.375 24.296875 -14.75 L 34.9375 0 L 24.90625 0 L 14.96875 -13.828125 L 11.078125 -13.828125 L 11.078125 0 Z M 11.078125 -21.0625 L 16.78125 -21.0625 C 18.832031 -21.0625 20.539062 -21.328125 21.90625 -21.859375 C 23.28125 -22.390625 23.96875 -23.492188 23.96875 -25.171875 C 23.96875 -26.890625 23.28125 -28.015625 21.90625 -28.546875 C 20.539062 -29.078125 18.832031 -29.34375 16.78125 -29.34375 L 11.078125 -29.34375 Z M 11.078125 -21.0625 "/></g></g></g><g fill="#1447e6" fill-opacity="1"><g transform="translate(93.822974, 52.456064)"><g><path d="M 3.125 0 L 3.125 -6.796875 L 8.28125 -6.796875 L 8.28125 -29.828125 L 3.125 -29.828125 L 3.125 -36.640625 L 22 -36.640625 L 22 -29.828125 L 16.953125 -29.828125 L 16.953125 -6.796875 L 22 -6.796875 L 22 0 Z M 3.125 0 "/></g></g></g><g fill="#1447e6" fill-opacity="1"><g transform="translate(130.343431, 52.456064)"><g><path d="M 2.40625 0 L 2.40625 -36.640625 L 15.40625 -36.640625 L 23.03125 -10.359375 L 30.765625 -36.640625 L 43.765625 -36.640625 L 43.765625 0 L 35.3125 0 L 35.3125 -28.796875 L 26.59375 0 L 19.46875 0 L 10.796875 -28.796875 L 10.796875 0 Z M 2.40625 0 "/></g></g></g><g fill="#1447e6" fill-opacity="1"><g transform="translate(187.919395, 52.456064)"><g><path d="M 1.75 0 L 1.75 -6.640625 L 20.234375 -29.015625 L 2.578125 -29.015625 L 2.578125 -36.640625 L 31.484375 -36.640625 L 31.484375 -30 L 13.15625 -7.625 L 32.296875 -7.625 L 32.296875 0 Z M 1.75 0 "/></g></g></g><g fill="#1447e6" fill-opacity="1"><g transform="translate(233.377484, 52.456064)"><g><path d="M 20.890625 0.65625 C 17.160156 0.65625 13.867188 -0.128906 11.015625 -1.703125 C 8.171875 -3.273438 5.941406 -5.484375 4.328125 -8.328125 C 2.722656 -11.179688 1.921875 -14.507812 1.921875 -18.3125 C 1.921875 -22.113281 2.722656 -25.441406 4.328125 -28.296875 C 5.941406 -31.148438 8.171875 -33.363281 11.015625 -34.9375 C 13.867188 -36.507812 17.160156 -37.296875 20.890625 -37.296875 C 24.660156 -37.296875 27.96875 -36.507812 30.8125 -34.9375 C 33.664062 -33.363281 35.90625 -31.148438 37.53125 -28.296875 C 39.164062 -25.441406 39.984375 -22.113281 39.984375 -18.3125 C 39.984375 -14.507812 39.164062 -11.179688 37.53125 -8.328125 C 35.90625 -5.484375 33.664062 -3.273438 30.8125 -1.703125 C 27.96875 -0.128906 24.660156 0.65625 20.890625 0.65625 Z M 20.890625 -6.46875 C 22.679688 -6.46875 24.328125 -6.914062 25.828125 -7.8125 C 27.328125 -8.707031 28.523438 -10.03125 29.421875 -11.78125 C 30.316406 -13.539062 30.765625 -15.71875 30.765625 -18.3125 C 30.765625 -20.914062 30.316406 -23.09375 29.421875 -24.84375 C 28.523438 -26.601562 27.328125 -27.925781 25.828125 -28.8125 C 24.328125 -29.707031 22.679688 -30.15625 20.890625 -30.15625 C 19.140625 -30.15625 17.515625 -29.707031 16.015625 -28.8125 C 14.515625 -27.925781 13.316406 -26.601562 12.421875 -24.84375 C 11.523438 -23.09375 11.078125 -20.914062 11.078125 -18.3125 C 11.078125 -15.71875 11.523438 -13.539062 12.421875 -11.78125 C 13.316406 -10.03125 14.515625 -8.707031 16.015625 -7.8125 C 17.515625 -6.914062 19.140625 -6.46875 20.890625 -6.46875 Z M 20.890625 -6.46875 "/></g></g></g></g></g><g transform="matrix(1, 0, 0, 1, 130, 69)"><g clip-path="url(#b1996e925d)"><g fill="#180573" fill-opacity="1"><g transform="translate(1.163523, 22.328384)"><g><path d="M 0.984375 0 L 0.984375 -15.0625 L 12.578125 -15.0625 L 12.578125 -11.921875 L 4.546875 -11.921875 L 4.546875 -9.3125 L 9.453125 -9.3125 L 9.453125 -6.171875 L 4.546875 -6.171875 L 4.546875 -3.140625 L 12.578125 -3.140625 L 12.578125 0 Z M 0.984375 0 "/></g></g></g><g fill="#180573" fill-opacity="1"><g transform="translate(19.718306, 22.328384)"><g><path d="M 0.984375 0 L 0.984375 -15.0625 L 5.53125 -15.0625 L 11.34375 -4.328125 L 11.34375 -15.0625 L 14.796875 -15.0625 L 14.796875 0 L 10.234375 0 L 4.421875 -10.734375 L 4.421875 0 Z M 0.984375 0 "/></g></g></g><g fill="#180573" fill-opacity="1"><g transform="translate(40.978162, 22.328384)"><g><path d="M 5.1875 0 L 5.1875 -11.921875 L 0.34375 -11.921875 L 0.34375 -15.0625 L 13.578125 -15.0625 L 13.578125 -11.921875 L 8.71875 -11.921875 L 8.71875 0 Z M 5.1875 0 "/></g></g></g><g fill="#180573" fill-opacity="1"><g transform="translate(60.367015, 22.328384)"><g><path d="M 0.984375 0 L 0.984375 -15.0625 L 12.578125 -15.0625 L 12.578125 -11.921875 L 4.546875 -11.921875 L 4.546875 -9.3125 L 9.453125 -9.3125 L 9.453125 -6.171875 L 4.546875 -6.171875 L 4.546875 -3.140625 L 12.578125 -3.140625 L 12.578125 0 Z M 0.984375 0 "/></g></g></g><g fill="#180573" fill-opacity="1"><g transform="translate(78.921798, 22.328384)"><g><path d="M 0.984375 0 L 0.984375 -15.0625 L 6.78125 -15.0625 C 8.09375 -15.0625 9.265625 -14.929688 10.296875 -14.671875 C 11.328125 -14.421875 12.140625 -13.957031 12.734375 -13.28125 C 13.328125 -12.601562 13.625 -11.640625 13.625 -10.390625 C 13.625 -9.816406 13.515625 -9.25 13.296875 -8.6875 C 13.085938 -8.125 12.722656 -7.609375 12.203125 -7.140625 C 11.691406 -6.679688 10.953125 -6.320312 9.984375 -6.0625 L 14.359375 0 L 10.234375 0 L 6.15625 -5.6875 L 4.546875 -5.6875 L 4.546875 0 Z M 4.546875 -8.65625 L 6.90625 -8.65625 C 7.738281 -8.65625 8.4375 -8.765625 9 -8.984375 C 9.570312 -9.203125 9.859375 -9.65625 9.859375 -10.34375 C 9.859375 -11.050781 9.570312 -11.515625 9 -11.734375 C 8.4375 -11.953125 7.738281 -12.0625 6.90625 -12.0625 L 4.546875 -12.0625 Z M 4.546875 -8.65625 "/></g></g></g><g fill="#180573" fill-opacity="1"><g transform="translate(99.144707, 22.328384)"><g><path d="M 0.984375 0 L 0.984375 -15.0625 L 6.78125 -15.0625 C 8.09375 -15.0625 9.265625 -14.925781 10.296875 -14.65625 C 11.328125 -14.382812 12.140625 -13.894531 12.734375 -13.1875 C 13.328125 -12.476562 13.625 -11.460938 13.625 -10.140625 C 13.625 -8.835938 13.328125 -7.828125 12.734375 -7.109375 C 12.140625 -6.398438 11.328125 -5.910156 10.296875 -5.640625 C 9.265625 -5.367188 8.09375 -5.234375 6.78125 -5.234375 L 4.546875 -5.234375 L 4.546875 0 Z M 4.546875 -8.1875 L 6.90625 -8.1875 C 7.457031 -8.1875 7.953125 -8.238281 8.390625 -8.34375 C 8.835938 -8.445312 9.191406 -8.640625 9.453125 -8.921875 C 9.722656 -9.210938 9.859375 -9.617188 9.859375 -10.140625 C 9.859375 -10.671875 9.722656 -11.070312 9.453125 -11.34375 C 9.191406 -11.625 8.835938 -11.8125 8.390625 -11.90625 C 7.953125 -12.007812 7.457031 -12.0625 6.90625 -12.0625 L 4.546875 -12.0625 Z M 4.546875 -8.1875 "/></g></g></g><g fill="#180573" fill-opacity="1"><g transform="translate(118.736438, 22.328384)"><g><path d="M 0.984375 0 L 0.984375 -15.0625 L 6.78125 -15.0625 C 8.09375 -15.0625 9.265625 -14.929688 10.296875 -14.671875 C 11.328125 -14.421875 12.140625 -13.957031 12.734375 -13.28125 C 13.328125 -12.601562 13.625 -11.640625 13.625 -10.390625 C 13.625 -9.816406 13.515625 -9.25 13.296875 -8.6875 C 13.085938 -8.125 12.722656 -7.609375 12.203125 -7.140625 C 11.691406 -6.679688 10.953125 -6.320312 9.984375 -6.0625 L 14.359375 0 L 10.234375 0 L 6.15625 -5.6875 L 4.546875 -5.6875 L 4.546875 0 Z M 4.546875 -8.65625 L 6.90625 -8.65625 C 7.738281 -8.65625 8.4375 -8.765625 9 -8.984375 C 9.570312 -9.203125 9.859375 -9.65625 9.859375 -10.34375 C 9.859375 -11.050781 9.570312 -11.515625 9 -11.734375 C 8.4375 -11.953125 7.738281 -12.0625 6.90625 -12.0625 L 4.546875 -12.0625 Z M 4.546875 -8.65625 "/></g></g></g><g fill="#180573" fill-opacity="1"><g transform="translate(138.959348, 22.328384)"><g><path d="M 1.28125 0 L 1.28125 -2.796875 L 3.40625 -2.796875 L 3.40625 -12.265625 L 1.28125 -12.265625 L 1.28125 -15.0625 L 9.046875 -15.0625 L 9.046875 -12.265625 L 6.96875 -12.265625 L 6.96875 -2.796875 L 9.046875 -2.796875 L 9.046875 0 Z M 1.28125 0 "/></g></g></g><g fill="#180573" fill-opacity="1"><g transform="translate(154.763981, 22.328384)"><g><path d="M 7.078125 0.265625 C 5.441406 0.265625 4.0625 -0.0664062 2.9375 -0.734375 C 1.820312 -1.398438 1.03125 -2.335938 0.5625 -3.546875 L 3.8125 -4.71875 C 4.019531 -3.988281 4.410156 -3.453125 4.984375 -3.109375 C 5.566406 -2.765625 6.273438 -2.59375 7.109375 -2.59375 C 7.535156 -2.59375 7.953125 -2.640625 8.359375 -2.734375 C 8.765625 -2.835938 9.101562 -3.003906 9.375 -3.234375 C 9.644531 -3.460938 9.78125 -3.773438 9.78125 -4.171875 C 9.78125 -4.691406 9.523438 -5.097656 9.015625 -5.390625 C 8.503906 -5.691406 7.84375 -5.914062 7.03125 -6.0625 L 5.203125 -6.421875 C 4.390625 -6.585938 3.632812 -6.835938 2.9375 -7.171875 C 2.238281 -7.515625 1.675781 -7.96875 1.25 -8.53125 C 0.832031 -9.09375 0.625 -9.804688 0.625 -10.671875 C 0.625 -11.472656 0.8125 -12.164062 1.1875 -12.75 C 1.570312 -13.34375 2.070312 -13.828125 2.6875 -14.203125 C 3.3125 -14.578125 4 -14.859375 4.75 -15.046875 C 5.507812 -15.234375 6.265625 -15.328125 7.015625 -15.328125 C 7.828125 -15.328125 8.609375 -15.210938 9.359375 -14.984375 C 10.117188 -14.765625 10.800781 -14.414062 11.40625 -13.9375 C 12.007812 -13.46875 12.46875 -12.84375 12.78125 -12.0625 L 9.5625 -10.890625 C 9.363281 -11.398438 9.007812 -11.789062 8.5 -12.0625 C 8 -12.332031 7.398438 -12.46875 6.703125 -12.46875 C 6.003906 -12.46875 5.425781 -12.34375 4.96875 -12.09375 C 4.507812 -11.84375 4.28125 -11.488281 4.28125 -11.03125 C 4.28125 -10.65625 4.4375 -10.332031 4.75 -10.0625 C 5.070312 -9.789062 5.488281 -9.601562 6 -9.5 L 8.03125 -9.09375 C 8.644531 -8.96875 9.265625 -8.8125 9.890625 -8.625 C 10.523438 -8.4375 11.109375 -8.1875 11.640625 -7.875 C 12.179688 -7.570312 12.613281 -7.164062 12.9375 -6.65625 C 13.269531 -6.144531 13.4375 -5.5 13.4375 -4.71875 C 13.4375 -3.914062 13.25 -3.203125 12.875 -2.578125 C 12.507812 -1.953125 12.019531 -1.429688 11.40625 -1.015625 C 10.800781 -0.597656 10.125 -0.28125 9.375 -0.0625 C 8.625 0.15625 7.859375 0.265625 7.078125 0.265625 Z M 7.078125 0.265625 "/></g></g></g><g fill="#180573" fill-opacity="1"><g transform="translate(174.19791, 22.328384)"><g><path d="M 0.984375 0 L 0.984375 -15.0625 L 12.578125 -15.0625 L 12.578125 -11.921875 L 4.546875 -11.921875 L 4.546875 -9.3125 L 9.453125 -9.3125 L 9.453125 -6.171875 L 4.546875 -6.171875 L 4.546875 -3.140625 L 12.578125 -3.140625 L 12.578125 0 Z M 0.984375 0 "/></g></g></g><g fill="#180573" fill-opacity="1"><g transform="translate(192.752693, 22.328384)"><g><path d="M 7.078125 0.265625 C 5.441406 0.265625 4.0625 -0.0664062 2.9375 -0.734375 C 1.820312 -1.398438 1.03125 -2.335938 0.5625 -3.546875 L 3.8125 -4.71875 C 4.019531 -3.988281 4.410156 -3.453125 4.984375 -3.109375 C 5.566406 -2.765625 6.273438 -2.59375 7.109375 -2.59375 C 7.535156 -2.59375 7.953125 -2.640625 8.359375 -2.734375 C 8.765625 -2.835938 9.101562 -3.003906 9.375 -3.234375 C 9.644531 -3.460938 9.78125 -3.773438 9.78125 -4.171875 C 9.78125 -4.691406 9.523438 -5.097656 9.015625 -5.390625 C 8.503906 -5.691406 7.84375 -5.914062 7.03125 -6.0625 L 5.203125 -6.421875 C 4.390625 -6.585938 3.632812 -6.835938 2.9375 -7.171875 C 2.238281 -7.515625 1.675781 -7.96875 1.25 -8.53125 C 0.832031 -9.09375 0.625 -9.804688 0.625 -10.671875 C 0.625 -11.472656 0.8125 -12.164062 1.1875 -12.75 C 1.570312 -13.34375 2.070312 -13.828125 2.6875 -14.203125 C 3.3125 -14.578125 4 -14.859375 4.75 -15.046875 C 5.507812 -15.234375 6.265625 -15.328125 7.015625 -15.328125 C 7.828125 -15.328125 8.609375 -15.210938 9.359375 -14.984375 C 10.117188 -14.765625 10.800781 -14.414062 11.40625 -13.9375 C 12.007812 -13.46875 12.46875 -12.84375 12.78125 -12.0625 L 9.5625 -10.890625 C 9.363281 -11.398438 9.007812 -11.789062 8.5 -12.0625 C 8 -12.332031 7.398438 -12.46875 6.703125 -12.46875 C 6.003906 -12.46875 5.425781 -12.34375 4.96875 -12.09375 C 4.507812 -11.84375 4.28125 -11.488281 4.28125 -11.03125 C 4.28125 -10.65625 4.4375 -10.332031 4.75 -10.0625 C 5.070312 -9.789062 5.488281 -9.601562 6 -9.5 L 8.03125 -9.09375 C 8.644531 -8.96875 9.265625 -8.8125 9.890625 -8.625 C 10.523438 -8.4375 11.109375 -8.1875 11.640625 -7.875 C 12.179688 -7.570312 12.613281 -7.164062 12.9375 -6.65625 C 13.269531 -6.144531 13.4375 -5.5 13.4375 -4.71875 C 13.4375 -3.914062 13.25 -3.203125 12.875 -2.578125 C 12.507812 -1.953125 12.019531 -1.429688 11.40625 -1.015625 C 10.800781 -0.597656 10.125 -0.28125 9.375 -0.0625 C 8.625 0.15625 7.859375 0.265625 7.078125 0.265625 Z M 7.078125 0.265625 "/></g></g></g></g></g></svg>